<?xml version="1.0" standalone="no"?>
<!DOCTYPE svg PUBLIC "-//W3C//DTD SVG 20010904//EN"
 "http://www.w3.org/TR/2001/REC-SVG-20010904/DTD/svg10.dtd">
<svg version="1.0" xmlns="http://www.w3.org/2000/svg"
 width="924.000000pt" height="924.000000pt" viewBox="0 0 924.000000 924.000000"
 preserveAspectRatio="xMidYMid meet">
<metadata>
Created by potrace 1.11, written by Peter Selinger 2001-2013
</metadata>
<g transform="translate(0.000000,924.000000) scale(0.100000,-0.100000)"
fill="#000000" stroke="none">
<path d="M1289 9236 c-2 -2 -22 -7 -44 -10 -22 -3 -56 -8 -75 -11 -44 -7 -127
-30 -205 -58 -70 -24 -208 -86 -215 -96 -3 -4 -27 -20 -55 -36 -107 -62 -247
-187 -346 -312 -33 -41 -99 -142 -99 -152 0 -5 -4 -11 -8 -13 -19 -8 -141
-298 -126 -298 4 0 1 -7 -6 -15 -7 -9 -10 -18 -7 -21 3 -3 2 -17 -4 -31 -9
-24 -15 -53 -27 -133 -10 -62 -9 -6774 1 -6830 4 -25 9 -58 12 -75 26 -164
127 -399 237 -548 58 -78 250 -277 268 -277 5 0 15 -6 23 -14 25 -25 149 -101
227 -138 128 -62 319 -117 426 -123 28 -1 56 -5 60 -7 14 -7 6583 -1 6639 7
28 3 59 7 70 8 11 2 26 6 33 11 6 4 16 5 21 1 5 -3 12 -1 16 5 3 5 16 10 28
10 29 0 174 52 257 92 91 44 200 113 245 156 8 6 16 12 20 12 3 0 16 10 29 23
13 12 36 34 52 48 47 42 130 137 164 189 8 12 20 28 25 34 46 54 167 309 181
385 3 14 7 28 9 31 2 4 7 20 9 36 3 16 8 40 11 54 10 49 18 116 19 168 0 28 3
52 7 52 3 0 4 15 2 33 -5 40 -4 12 -4 277 0 124 0 232 0 240 0 8 0 94 0 190 0
96 0 182 0 190 0 8 0 139 0 290 0 151 0 282 0 290 0 8 0 94 0 190 0 96 0 182
0 190 0 8 0 139 0 290 0 151 0 282 0 290 0 8 0 116 0 240 0 124 0 232 0 240 0
8 0 80 0 160 1 80 1 152 0 160 0 8 0 80 0 160 1 80 1 152 0 160 0 8 0 80 0
160 1 80 1 152 0 160 0 8 0 116 0 240 0 124 0 232 0 240 0 8 0 94 0 190 0 96
0 182 0 190 0 8 0 139 0 290 0 151 0 282 0 290 0 8 0 94 0 190 0 96 0 182 0
190 0 8 0 139 0 290 0 151 0 282 0 290 0 8 0 62 0 120 1 219 -14 342 -60 485
-13 39 -23 72 -24 75 0 3 -6 15 -13 28 -7 12 -10 22 -8 22 9 0 -83 171 -126
234 -75 110 -171 216 -257 286 -18 14 -37 30 -44 35 -67 55 -217 145 -241 145
-9 0 -16 4 -16 9 0 8 -170 71 -235 87 -179 44 -48 42 -3536 43 -1818 0 -3308
-1 -3310 -3z"/>
</g>
</svg>
