<?xml version="1.0" encoding="UTF-8" standalone="no"?>
<!DOCTYPE svg PUBLIC "-//W3C//DTD SVG 1.1//EN" "http://www.w3.org/Graphics/SVG/1.1/DTD/svg11.dtd">
<svg width="100%" height="100%" viewBox="0 0 228 231" version="1.1" xmlns="http://www.w3.org/2000/svg" xmlns:xlink="http://www.w3.org/1999/xlink" xml:space="preserve" style="fill-rule:evenodd;clip-rule:evenodd;stroke-linejoin:round;stroke-miterlimit:1.41421;">
    <g transform="matrix(1.26991,0,0,1.30708,-389.136,-550.931)">
        <path d="M485.596,447.607C485.596,433.196 473.554,421.496 458.721,421.496L333.303,421.496C318.471,421.496 306.428,433.196 306.428,447.607L306.428,571.471C306.428,585.882 318.471,597.581 333.303,597.581L458.721,597.581C473.554,597.581 485.596,585.882 485.596,571.471L485.596,447.607Z"/>
    </g>
    <g transform="matrix(1.05651,0,0,1.05651,-39.9233,-898.371)">
        <g>
            <g id="Outer-Right" transform="matrix(1,0,0,1,-250.352,600.654)">
                <path d="M483.316,300.636C480.466,307.857 477.616,316.407 474.766,325.337L453.485,394.309C450.065,405.329 448.925,410.079 447.785,416.54L415.484,416.54L428.784,366.188L428.862,365.818C429.915,360.953 438.475,324.577 438.475,324.577C440.755,314.697 442.085,306.717 442.465,300.636L483.316,300.636Z" style="fill:rgb(62,117,231);"/>
            </g>
            <g id="Outer-Left" transform="matrix(1,0,0,1,-250.352,600.654)">
                <path d="M376.153,416.54L343.852,416.54C342.522,409.699 341.192,404.569 338.151,394.309L316.871,325.337C314.781,318.687 311.931,310.327 308.32,300.636L349.172,300.636C349.552,307.287 350.692,314.127 352.782,323.057C352.782,323.057 362.662,364.668 362.852,366.188L376.153,416.54Z" style="fill:rgb(220,38,39);"/>
            </g>
        </g>
        <g id="Inner-Left" transform="matrix(1,0,0,1,-250.352,600.654)">
            <path d="M395.913,348.897C394.583,353.268 382.043,394.309 382.043,394.309C379.466,402.408 377.067,411.398 376.229,416.098L376.153,416.54L362.852,366.188L363.377,364.476C366.467,354.383 376.153,322.487 376.153,322.487C381.283,304.627 381.283,304.626 382.043,300.636L409.784,300.636L395.913,348.897Z" style="fill:rgb(237,174,56);"/>
        </g>
        <g id="Inner-Right" transform="matrix(1,0,0,1,-250.352,600.654)">
            <path d="M415.393,416.022C414.437,410.668 412.907,404.985 409.594,394.309C409.594,394.309 396.706,351.962 395.94,349.008L395.913,348.897L409.784,300.636L409.842,301.008C410.497,305.006 412.723,313.835 415.484,322.487C415.484,322.487 428.024,363.908 428.784,366.188L415.484,416.54L415.393,416.022Z" style="fill:rgb(74,147,71);"/>
        </g>
    </g>
</svg>
